<?xml version="1.0" standalone="no"?>
<!DOCTYPE svg PUBLIC "-//W3C//DTD SVG 20010904//EN"
 "http://www.w3.org/TR/2001/REC-SVG-20010904/DTD/svg10.dtd">
<svg version="1.0" xmlns="http://www.w3.org/2000/svg"
 width="512.000000pt" height="512.000000pt" viewBox="0 0 512.000000 512.000000"
 preserveAspectRatio="xMidYMid meet">

<g transform="translate(0.000000,512.000000) scale(0.100000,-0.100000)"
fill="#000000" stroke="none">
<path d="M2321 5109 c-486 -43 -989 -249 -1376 -564 -114 -92 -294 -274 -384
-387 -229 -287 -417 -675 -495 -1023 -49 -218 -60 -325 -60 -575 0 -250 11
-357 60 -575 79 -355 272 -749 509 -1040 92 -114 274 -294 387 -384 287 -229
675 -417 1023 -495 218 -49 325 -60 575 -60 250 0 357 11 575 60 261 58 603
204 828 353 389 259 688 599 893 1016 165 337 246 658 261 1033 23 598 -168
1183 -545 1672 -84 109 -323 348 -432 432 -528 407 -1164 595 -1819 537z m569
-183 c135 -22 229 -42 350 -77 109 -31 335 -120 367 -144 15 -12 -132 -14
-1047 -14 -915 0 -1062 2 -1047 14 32 24 258 113 368 144 161 47 280 69 509
95 72 9 409 -4 500 -18z m1124 -475 c120 -91 272 -235 365 -346 l75 -90 -947
-3 c-521 -1 -1373 -1 -1894 0 l-947 3 76 90 c87 106 259 269 373 354 l80 60
1364 1 1364 0 91 -69z m613 -698 c57 -96 119 -226 164 -343 16 -41 29 -76 29
-77 0 -2 -1017 -3 -2260 -3 -1243 0 -2260 1 -2260 3 0 1 13 36 29 77 45 117
107 247 164 343 l51 87 2016 0 2016 0 51 -87z m246 -600 c18 -29 56 -270 71
-445 l5 -58 -2389 0 -2389 0 5 58 c15 175 53 416 71 445 6 9 4620 9 4626 0z
m71 -740 c-15 -176 -53 -417 -71 -445 -6 -10 -4620 -10 -4626 0 -18 28 -56
269 -71 445 l-5 57 2389 0 2389 0 -5 -57z m-124 -626 c0 -1 -13 -36 -29 -77
-45 -117 -107 -247 -164 -342 l-51 -88 -2016 0 -2016 0 -51 88 c-57 95 -119
225 -164 342 -16 41 -29 76 -29 77 0 2 1017 3 2260 3 1243 0 2260 -1 2260 -3z
m-376 -689 c-50 -86 -283 -318 -430 -429 l-91 -69 -1363 0 -1363 0 -91 69
c-147 111 -380 343 -430 429 -6 9 374 12 1884 12 1510 0 1890 -3 1884 -12z
m-837 -683 c-32 -24 -258 -113 -368 -144 -244 -71 -421 -96 -679 -96 -258 0
-435 25 -679 96 -110 31 -336 120 -368 144 -15 12 132 14 1047 14 915 0 1062
-2 1047 -14z"/>
</g>
</svg>
