<?xml version="1.0" standalone="no"?>
<!DOCTYPE svg PUBLIC "-//W3C//DTD SVG 20010904//EN"
 "http://www.w3.org/TR/2001/REC-SVG-20010904/DTD/svg10.dtd">
<svg version="1.0" xmlns="http://www.w3.org/2000/svg"
 width="512.000000pt" height="512.000000pt" viewBox="0 0 512.000000 512.000000"
 preserveAspectRatio="xMidYMid meet">

<g transform="translate(0.000000,512.000000) scale(0.100000,-0.100000)"
fill="#000000" stroke="none">
<path d="M2321 5110 c-313 -31 -610 -116 -900 -261 -503 -249 -900 -646 -1150
-1150 -126 -252 -198 -480 -243 -764 -32 -201 -32 -549 0 -750 45 -284 117
-512 243 -764 201 -406 503 -747 886 -1002 225 -149 567 -295 828 -353 218
-49 325 -60 575 -60 260 0 408 17 630 73 340 87 692 262 968 482 113 90 295
270 387 384 237 291 430 685 509 1040 49 216 60 325 60 570 0 430 -74 753
-258 1130 -134 272 -283 480 -498 692 -211 209 -404 346 -673 478 -252 124
-486 197 -765 240 -126 19 -468 27 -599 15z m147 -3734 l-3 -1184 -54 36
c-212 141 -411 602 -521 1201 -67 368 -94 686 -94 1131 0 445 27 763 94 1131
110 599 309 1060 521 1201 l54 36 3 -1184 c1 -651 1 -1717 0 -2368z m279 3487
c153 -122 323 -479 423 -888 109 -447 153 -857 153 -1415 0 -664 -74 -1208
-228 -1675 -114 -348 -256 -578 -417 -678 l-28 -17 0 2370 0 2370 28 -17 c15
-9 46 -32 69 -50z m-617 -9 c0 -3 -13 -24 -29 -47 -150 -219 -288 -611 -370
-1057 -76 -406 -103 -726 -103 -1190 0 -464 27 -784 103 -1190 83 -447 220
-838 371 -1058 16 -24 28 -46 25 -49 -9 -9 -186 88 -268 146 -376 269 -665
733 -814 1306 -139 536 -139 1154 0 1690 59 225 120 388 222 587 191 376 448
655 753 817 94 50 110 57 110 45z m969 -44 c651 -346 1081 -1240 1081 -2250 0
-908 -355 -1745 -909 -2144 -83 -60 -269 -162 -278 -153 -3 3 9 25 25 49 150
218 288 610 371 1053 75 404 104 731 104 1195 0 464 -29 791 -104 1195 -83
441 -221 835 -370 1052 -47 68 -44 69 80 3z m-1556 -148 c-397 -394 -660 -980
-750 -1672 -25 -190 -25 -670 0 -860 90 -692 353 -1278 750 -1672 l108 -107
-78 35 c-530 241 -973 690 -1198 1214 -270 627 -270 1293 0 1920 178 415 500
792 895 1049 67 43 363 201 378 201 2 0 -45 -48 -105 -108z m2167 -9 c197
-106 355 -226 536 -407 206 -207 334 -384 454 -631 117 -238 187 -463 226
-720 25 -166 25 -502 0 -670 -123 -814 -638 -1502 -1379 -1839 l-78 -36 108
108 c397 394 657 973 750 1667 24 184 24 686 0 870 -93 694 -353 1273 -750
1667 l-108 108 78 -36 c43 -19 116 -56 163 -81z"/>
</g>
</svg>
